<svg width="32" height="32" viewBox="0 0 32 32" fill="none" xmlns="http://www.w3.org/2000/svg">
<path d="M30.6768 23.6742V28.1246C30.6785 28.5377 30.5939 28.9466 30.4284 29.3252C30.2629 29.7037 30.0201 30.0435 29.7157 30.3228C29.4112 30.6021 29.0518 30.8148 28.6605 30.9471C28.2691 31.0795 27.8544 31.1286 27.4429 31.0915C22.8781 30.5955 18.4933 29.0356 14.6407 26.5373C11.0565 24.2597 8.01765 21.2208 5.74006 17.6366C3.233 13.7666 1.6728 9.36041 1.18587 4.77508C1.1488 4.36486 1.19755 3.95141 1.32902 3.56106C1.46049 3.17071 1.6718 2.81201 1.9495 2.50781C2.22719 2.2036 2.56519 1.96054 2.94196 1.79412C3.31874 1.6277 3.72604 1.54155 4.13793 1.54116H8.58828C9.30821 1.53407 10.0061 1.78901 10.552 2.25846C11.0979 2.7279 11.4544 3.37982 11.5552 4.09269C11.743 5.5169 12.0914 6.91529 12.5936 8.26118C12.7932 8.79214 12.8364 9.36919 12.7181 9.92395C12.5997 10.4787 12.3249 10.9879 11.926 11.3913L10.0421 13.2752C12.1538 16.9891 15.2289 20.0642 18.9428 22.1759L20.8267 20.292C21.2301 19.8931 21.7393 19.6182 22.294 19.4999C22.8488 19.3816 23.4258 19.4248 23.9568 19.6244C25.3027 20.1266 26.7011 20.475 28.1253 20.6628C28.8459 20.7645 29.504 21.1274 29.9745 21.6827C30.4449 22.2379 30.6949 22.9467 30.6768 23.6742Z" stroke="#090A0A" stroke-width="1.66888" stroke-linecap="round" stroke-linejoin="round"/>
</svg>
