<svg width="1255" height="838" viewBox="0 0 1255 838" fill="none" xmlns="http://www.w3.org/2000/svg">
<mask id="path-1-inside-1_256_5421" fill="white">
<path d="M1024.68 0C1043.8 0 1055.17 28.2357 1047.15 45.5881C1039.99 61.0735 1036 78.3204 1036 96.5C1036 163.603 1090.4 218 1157.5 218C1175.79 218 1193.14 213.958 1208.7 206.719C1226.15 198.596 1255 210.085 1255 229.338V798C1255 820.091 1237.09 838 1215 838H40C17.9086 838 0 820.091 0 798V40C6.31457e-06 17.9086 17.9086 6.44261e-07 40 0H1024.68Z"/>
</mask>
<path d="M1024.68 0C1043.8 0 1055.17 28.2357 1047.15 45.5881C1039.99 61.0735 1036 78.3204 1036 96.5C1036 163.603 1090.4 218 1157.5 218C1175.79 218 1193.14 213.958 1208.7 206.719C1226.15 198.596 1255 210.085 1255 229.338V798C1255 820.091 1237.09 838 1215 838H40C17.9086 838 0 820.091 0 798V40C6.31457e-06 17.9086 17.9086 6.44261e-07 40 0H1024.68Z" fill="#F5F5F7"/>
<path d="M1255 798L1275 798V798H1255ZM1215 838L1215 858H1215L1215 838ZM40 838L40 858H40V838ZM0 40L-20 40V40H0ZM40 0L40 -20L40 -20L40 0ZM1208.7 206.719L1217.13 224.852L1208.7 206.719ZM1047.15 45.5881L1065.3 53.9782L1047.15 45.5881ZM1047.15 45.5881L1028.99 37.198C1020.65 55.2597 1016 75.3646 1016 96.5H1036H1056C1056 81.2763 1059.34 66.8872 1065.3 53.9782L1047.15 45.5881ZM1036 96.5H1016C1016 174.648 1079.35 238 1157.5 238V218V198C1101.44 198 1056 152.557 1056 96.5H1036ZM1157.5 218V238C1178.77 238 1198.99 233.296 1217.13 224.852L1208.7 206.719L1200.26 188.586C1187.29 194.621 1172.82 198 1157.5 198V218ZM1255 229.338H1235V798H1255H1275V229.338H1255ZM1255 798L1235 798C1235 809.046 1226.05 818 1215 818L1215 838L1215 858C1248.14 858 1275 831.137 1275 798L1255 798ZM1215 838V818H40V838V858H1215V838ZM40 838L40 818C28.9543 818 20 809.046 20 798H0H-20C-20 831.137 6.86292 858 40 858L40 838ZM0 798H20V40H0H-20V798H0ZM0 40L20 40C20 28.9543 28.9543 20 40 20L40 0L40 -20C6.86291 -20 -20 6.86293 -20 40L0 40ZM40 0V20H1024.68V0V-20H40V0ZM1208.7 206.719L1217.13 224.852C1218.02 224.441 1219.77 223.979 1222.38 224.098C1224.96 224.216 1227.71 224.878 1230.13 225.975C1235.85 228.57 1235 230.765 1235 229.338H1255H1275C1275 208.657 1259.73 195.482 1246.66 189.55C1233.37 183.52 1215.54 181.474 1200.26 188.586L1208.7 206.719ZM1047.15 45.5881L1065.3 53.9782C1072.33 38.7849 1070.32 21.1427 1064.27 7.95415C1058.31 -5.05762 1045.16 -20 1024.68 -20V0V20C1023.33 20 1025.42 19.1755 1027.91 24.6197C1028.97 26.9352 1029.62 29.5812 1029.73 32.0744C1029.85 34.5999 1029.4 36.3106 1028.99 37.198L1047.15 45.5881Z" fill="white" mask="url(#path-1-inside-1_256_5421)"/>
<circle cx="1157.5" cy="96.5" r="83" fill="#FFC300" stroke="#FFC300" stroke-width="25"/>
<path d="M1139.28 114.712L1175.71 78.2871M1175.71 78.2871H1139.28M1175.71 78.2871V114.712" stroke="#090A0A" stroke-width="4.09781" stroke-linecap="round" stroke-linejoin="round"/>
</svg>
